# xmcd
#
# Track frame offsets: 
#        150
#        6918
#        16826
#        23467
#        29912
#        36736
#        48809
#        58285
#        65380
#        76416
#        83958
#        97959
#        111782
#        122673
#        137564
#        148119
#        165224
#        170415
#        176671
#        185336
#        202001
#        214230
#        228294
#        245542
#
# Disc length: 3428 seconds
#
# Revision: 1
# Processed by: cddbd v1.5.2PL0 Copyright (c) Steve Scherf et al.
# Submitted via: ExactAudioCopy v0.99pb5
#
DISCID=490d6218
DTITLE=Henri Crolla - Le long des rues [CD2)
DYEAR=2009
DGENRE=Jazz
TTITLE0=O Guitares
TTITLE1=Porte de Choisy
TTITLE2=Serenade a une parisienne
TTITLE3=Gas-oil
TTITLE4=Les deux plumes
TTITLE5=Improvisation
TTITLE6=Mon chien
TTITLE7=Leon la Lune
TTITLE8=Paradis
TTITLE9=La chapelle
TTITLE10=Saint Paul de Vence
TTITLE11=Blues II
TTITLE12=Improvisation II
TTITLE13=Saint-Tropez Blues
TTITLE14=Tumbleweed
TTITLE15=Generique Le bonheur est pour demain
TTITLE16=Alain and Annie
TTITLE17=Fugue
TTITLE18=Souvenir d'Henri
TTITLE19=Loterie
TTITLE20=Usine
TTITLE21=Voulez vous danser avec moi
TTITLE22=Monsieur Petit Louis
TTITLE23=Paris a le coeur tendre
EXTD=YEAR: 2009
EXTT0=
EXTT1=
EXTT2=
EXTT3=
EXTT4=
EXTT5=
EXTT6=
EXTT7=
EXTT8=
EXTT9=
EXTT10=
EXTT11=
EXTT12=
EXTT13=
EXTT14=
EXTT15=
EXTT16=
EXTT17=
EXTT18=
EXTT19=
EXTT20=
EXTT21=
EXTT22=
EXTT23=
PLAYORDER=
